<?xml version="1.0" encoding="UTF-8" standalone="no"?>
<!DOCTYPE svg PUBLIC "-//W3C//DTD SVG 1.1//EN"
 "http://www.w3.org/Graphics/SVG/1.1/DTD/svg11.dtd">
<!-- Generated by graphviz version 2.38.0 (20140413.2041)
 -->
<!-- Title: %3 Pages: 1 -->
<svg width="69pt" height="155pt"
 viewBox="0.00 0.00 68.50 154.98" xmlns="http://www.w3.org/2000/svg" xmlns:xlink="http://www.w3.org/1999/xlink">
<g id="graph0" class="graph" transform="scale(1 1) rotate(0) translate(4 150.983)">
<title>%3</title>
<polygon fill="white" stroke="none" points="-4,4 -4,-150.983 64.5,-150.983 64.5,4 -4,4"/>
<!-- 0 -->
<g id="node1" class="node"><title>0</title>
<polygon fill="lightgrey" stroke="black" points="20.256,-146.983 0.244048,-146.983 0.244048,-129.983 20.256,-129.983 20.256,-146.983"/>
<text text-anchor="middle" x="10.25" y="-135.783" font-family="Times,serif" font-size="9.00">0</text>
</g>
<!-- 2 -->
<g id="node3" class="node"><title>2</title>
<ellipse fill="lightblue" stroke="lightblue" cx="30.25" cy="-14.4957" rx="14.4914" ry="14.4914"/>
<text text-anchor="middle" x="30.25" y="-11.7957" font-family="Times,serif" font-size="9.00">2</text>
</g>
<!-- 0&#45;&gt;2 -->
<g id="edge5" class="edge"><title>0&#45;&gt;2</title>
<path fill="none" stroke="red" stroke-width="0.260655" d="M8.6458,-129.75C6.15322,-116.37 2.13997,-88.1141 7.25,-64.9914 9.44869,-55.0424 13.8583,-44.7185 18.2336,-36.0901"/>
<polygon fill="red" stroke="red" stroke-width="0.260655" points="21.3731,-37.6422 23.0392,-27.1791 15.2119,-34.3195 21.3731,-37.6422"/>
</g>
<!-- 3 -->
<g id="node4" class="node"><title>3</title>
<ellipse fill="none" stroke="black" cx="30.25" cy="-79.4871" rx="14.4914" ry="14.4914"/>
<text text-anchor="middle" x="30.25" y="-76.7871" font-family="Times,serif" font-size="9.00">3</text>
</g>
<!-- 0&#45;&gt;3 -->
<g id="edge2" class="edge"><title>0&#45;&gt;3</title>
<path fill="none" stroke="red" stroke-width="1.06014" d="M13.0309,-129.558C15.4271,-122.729 19.0075,-112.526 22.2837,-103.189"/>
<polygon fill="red" stroke="red" stroke-width="1.06014" points="25.6405,-104.194 25.649,-93.5988 19.0353,-101.876 25.6405,-104.194"/>
</g>
<!-- 1 -->
<g id="node2" class="node"><title>1</title>
<polygon fill="lightgrey" stroke="black" points="60.256,-146.983 40.244,-146.983 40.244,-129.983 60.256,-129.983 60.256,-146.983"/>
<text text-anchor="middle" x="50.25" y="-135.783" font-family="Times,serif" font-size="9.00">1</text>
</g>
<!-- 1&#45;&gt;2 -->
<g id="edge1" class="edge"><title>1&#45;&gt;2</title>
<path fill="none" stroke="red" stroke-width="0.244216" d="M51.8542,-129.75C54.3468,-116.37 58.36,-88.1141 53.25,-64.9914 51.0513,-55.0424 46.6417,-44.7185 42.2664,-36.0901"/>
<polygon fill="red" stroke="red" stroke-width="0.244216" points="45.2881,-34.3195 37.4608,-27.1791 39.1269,-37.6422 45.2881,-34.3195"/>
</g>
<!-- 1&#45;&gt;3 -->
<g id="edge3" class="edge"><title>1&#45;&gt;3</title>
<path fill="none" stroke="red" stroke-width="0.826815" d="M47.4691,-129.558C45.0729,-122.729 41.4925,-112.526 38.2163,-103.189"/>
<polygon fill="red" stroke="red" stroke-width="0.826815" points="41.4647,-101.876 34.851,-93.5988 34.8595,-104.194 41.4647,-101.876"/>
</g>
<!-- 3&#45;&gt;2 -->
<g id="edge4" class="edge"><title>3&#45;&gt;2</title>
<path fill="none" stroke="red" stroke-width="1.7942" d="M30.25,-64.8189C30.25,-57.3898 30.25,-47.9876 30.25,-39.3894"/>
<polygon fill="red" stroke="red" stroke-width="1.7942" points="33.7501,-39.1372 30.25,-29.1372 26.7501,-39.1372 33.7501,-39.1372"/>
</g>
</g>
</svg>
